<?xml version="1.0" encoding="utf-8"?>
<!-- Generator: Adobe Illustrator 19.2.1, SVG Export Plug-In . SVG Version: 6.00 Build 0)  -->
<svg version="1.1" id="layer" xmlns="http://www.w3.org/2000/svg" xmlns:xlink="http://www.w3.org/1999/xlink" x="0px" y="0px"
	 viewBox="0 0 652 652" style="enable-background:new 0 0 652 652;" xml:space="preserve">
<style type="text/css">
	.st0{fill:#46166B;}
	.st1{clip-path:url(#SVGID_2_);fill:url(#SVGID_3_);}
	.st2{fill:#FFFFFF;}
</style>
<g>
	<rect x="20.3" y="249.2" class="st0" width="600" height="144.7"/>
</g>
<g>
	<defs>
		<path id="SVGID_1_" d="M321.6,322.2c-42.3,0.2-79.2,5.4-109.7,14.9c-54.6,17.1-92.3,46.2-107.3,56.3l7.7,0
			c0.1-0.1,46.6-33.9,100.5-49.2c30.5-8.6,68-11.9,111.6-11.9c26.4,0,50.3,2.7,71.4,7.4c67.1,14.8,118.2,55,118.2,55l29.2-0.1
			c-18.5-11.6-65.2-53.2-146.5-66.5c-20.3-3.3-42-5.8-69.7-6H321.6z"/>
	</defs>
	<clipPath id="SVGID_2_">
		<use xlink:href="#SVGID_1_"  style="overflow:visible;"/>
	</clipPath>
	
		<radialGradient id="SVGID_3_" cx="-113.5386" cy="630.7177" r="1" gradientTransform="matrix(472.7156 0 0 -463.4292 54224.6289 292599.9375)" gradientUnits="userSpaceOnUse">
		<stop  offset="0" style="stop-color:#F8ED34"/>
		<stop  offset="0.4232" style="stop-color:#EB9933"/>
		<stop  offset="0.6621" style="stop-color:#E56E33"/>
		<stop  offset="0.7171" style="stop-color:#D1633A"/>
		<stop  offset="0.8297" style="stop-color:#9E474C"/>
		<stop  offset="0.9886" style="stop-color:#4C1969"/>
		<stop  offset="1" style="stop-color:#46166B"/>
	</radialGradient>
	<rect x="104.5" y="322.2" class="st1" width="438.5" height="72.6"/>
</g>
<g>
	<polygon class="st2" points="67.8,297 72.2,297 72.2,315.4 94.5,315.4 94.5,297 98.9,297 98.9,340.9 94.5,340.9 94.5,319.7 
		72.2,319.7 72.2,340.9 67.8,340.9 	"/>
</g>
<g>
	<path class="st2" d="M130.5,295.9c6.6,0,12.2,2.2,16.7,6.7c4.5,4.4,6.7,9.9,6.7,16.4c0,6.4-2.2,11.9-6.7,16.4
		c-4.5,4.5-9.9,6.7-16.3,6.7c-6.5,0-12-2.2-16.5-6.7c-4.5-4.5-6.7-9.9-6.7-16.2c0-4.2,1-8.1,3.1-11.7c2-3.6,4.8-6.4,8.4-8.5
		C122.6,296.9,126.4,295.9,130.5,295.9 M130.7,300.2c-3.2,0-6.3,0.8-9.2,2.5c-2.9,1.7-5.2,4-6.8,6.8c-1.6,2.9-2.4,6.1-2.4,9.6
		c0,5.2,1.8,9.6,5.4,13.2c3.6,3.6,8,5.4,13.1,5.4c3.4,0,6.6-0.8,9.5-2.5c2.9-1.7,5.2-3.9,6.8-6.8c1.6-2.9,2.4-6.1,2.4-9.6
		c0-3.5-0.8-6.6-2.4-9.5c-1.6-2.8-3.9-5.1-6.9-6.8C137.1,301,134,300.2,130.7,300.2"/>
	<path class="st2" d="M162.9,297h4.4v26.5c0,3.1,0.1,5.1,0.2,5.9c0.2,1.7,0.7,3.2,1.5,4.4c0.8,1.2,2,2.1,3.7,2.9
		c1.7,0.8,3.3,1.2,5,1.2c1.5,0,2.9-0.3,4.2-0.9c1.3-0.6,2.4-1.5,3.3-2.6c0.9-1.1,1.6-2.4,2-4c0.3-1.1,0.4-3.4,0.4-6.9V297h4.4v26.5
		c0,3.9-0.4,7.1-1.1,9.5c-0.8,2.4-2.3,4.5-4.6,6.3c-2.3,1.8-5.1,2.7-8.3,2.7c-3.5,0-6.6-0.8-9.1-2.5c-2.5-1.7-4.2-3.9-5.1-6.7
		c-0.5-1.7-0.8-4.8-0.8-9.3V297z"/>
	<path class="st2" d="M198.2,332.7l3.7-2.2c2.6,4.8,5.7,7.3,9.1,7.3c1.5,0,2.8-0.3,4.1-1c1.3-0.7,2.3-1.6,3-2.8c0.7-1.1,1-2.4,1-3.7
		c0-1.5-0.5-2.9-1.5-4.3c-1.4-2-3.9-4.3-7.5-7c-3.7-2.8-5.9-4.8-6.8-6c-1.6-2.1-2.3-4.3-2.3-6.7c0-1.9,0.5-3.7,1.4-5.2
		c0.9-1.6,2.2-2.8,3.9-3.7c1.7-0.9,3.5-1.4,5.4-1.4c2.1,0,4,0.5,5.8,1.5c1.8,1,3.7,2.9,5.7,5.7l-3.6,2.7c-1.7-2.2-3.1-3.6-4.2-4.3
		c-1.2-0.7-2.4-1-3.8-1c-1.8,0-3.2,0.5-4.3,1.6c-1.1,1.1-1.7,2.4-1.7,4c0,1,0.2,1.9,0.6,2.8c0.4,0.9,1.1,1.9,2.2,2.9
		c0.6,0.6,2.5,2,5.7,4.4c3.8,2.8,6.4,5.3,7.8,7.5c1.4,2.2,2.1,4.4,2.1,6.6c0,3.2-1.2,6-3.6,8.3c-2.4,2.3-5.4,3.5-8.8,3.5
		c-2.7,0-5.1-0.7-7.3-2.1C202,338.5,200,336.1,198.2,332.7"/>
	<polygon class="st2" points="233.2,297 258.4,297 258.4,301.3 237.6,301.3 237.6,315.1 258.2,315.1 258.2,319.4 237.6,319.4 
		237.6,336.6 258.2,336.6 258.2,340.9 233.2,340.9 	"/>
	<path class="st2" d="M303.8,295.9c6.6,0,12.2,2.2,16.7,6.7c4.5,4.4,6.7,9.9,6.7,16.4c0,6.4-2.2,11.9-6.7,16.4
		c-4.5,4.5-9.9,6.7-16.4,6.7c-6.5,0-12-2.2-16.5-6.7c-4.5-4.5-6.7-9.9-6.7-16.2c0-4.2,1-8.1,3.1-11.7c2-3.6,4.8-6.4,8.3-8.5
		C295.9,296.9,299.7,295.9,303.8,295.9 M304,300.2c-3.3,0-6.3,0.8-9.2,2.5c-2.9,1.7-5.2,4-6.8,6.8c-1.6,2.9-2.5,6.1-2.5,9.6
		c0,5.2,1.8,9.6,5.4,13.2c3.6,3.6,8,5.4,13.1,5.4c3.4,0,6.5-0.8,9.5-2.5c2.9-1.7,5.2-3.9,6.8-6.8c1.6-2.9,2.4-6.1,2.4-9.6
		c0-3.5-0.8-6.6-2.4-9.5c-1.6-2.8-3.9-5.1-6.9-6.8C310.4,301,307.3,300.2,304,300.2"/>
	<polygon class="st2" points="336,297 358,297 358,301.3 340.4,301.3 340.4,315.1 358,315.1 358,319.4 340.4,319.4 340.4,340.9 
		336,340.9 	"/>
	<polygon class="st2" points="378,297.1 402.3,297.1 402.3,305.4 394.3,305.4 394.3,341.1 385.8,341.1 385.8,305.4 378,305.4 	"/>
	<path class="st2" d="M408.6,297.1h8.8c4.9,0,8.3,0.4,10.4,1.3c2.1,0.9,3.7,2.3,5,4.3c1.3,2,1.9,4.4,1.9,7.1c0,2.9-0.7,5.3-2.1,7.2
		c-1.4,1.9-3.5,3.4-6.2,4.4l10.4,19.5h-9.1l-9.9-18.6H417v18.6h-8.4V297.1z M417,314.3h2.6c2.7,0,4.5-0.3,5.5-1
		c1-0.7,1.5-1.9,1.5-3.5c0-1-0.3-1.8-0.7-2.5c-0.5-0.7-1.2-1.2-2-1.5c-0.8-0.3-2.4-0.5-4.6-0.5H417V314.3z"/>
	<path class="st2" d="M454.1,297.1h8.5l16.9,43.9h-8.7l-3.4-9h-17.9l-3.6,9h-8.7L454.1,297.1z M458.4,308.8l-5.9,15.1h11.7
		L458.4,308.8z"/>
	<polygon class="st2" points="474,297.1 482.6,297.1 493.6,328.3 504.8,297.1 513.4,297.1 497.6,341.1 489.5,341.1 	"/>
	<polygon class="st2" points="517.3,297.1 541.3,297.1 541.3,305.3 525.6,305.3 525.6,313.3 541.3,313.3 541.3,321.3 525.6,321.3 
		525.6,332.8 541.3,332.8 541.3,341.1 517.3,341.1 	"/>
	<polygon class="st2" points="549.9,297.1 558.3,297.1 558.3,333.1 570.5,333.1 570.5,341.1 549.9,341.1 	"/>
</g>
</svg>
